<?xml version="1.0" encoding="UTF-8"?>
<!-- Generated by Pixelmator Pro 3.7.1 -->
<svg width="512" height="512" viewBox="0 0 512 512" xmlns="http://www.w3.org/2000/svg">
    <path id="Path" fill="#1a1a1a" stroke="none" d="M 64 0 L 448 0 C 483.346222 0 512 28.653778 512 64 L 512 448 C 512 483.346222 483.346222 512 448 512 L 64 512 C 28.653776 512 0 483.346222 0 448 L 0 64 C 0 28.653778 28.653776 0 64 0 Z"/>
    <path id="path1" fill="none" stroke="#7b1818" stroke-width="64" stroke-linecap="round" stroke-linejoin="round" d="M 368 132 C 344 112.799988 312 100 272 100 C 208 100 168 132 168 172 C 168 207.200012 192 228 240 244 L 288 260 C 332.799988 276 360 295.200012 360 332 C 360 380 315.200012 412 248 412 C 203.199997 412 168 396 144 376.799988"/>
</svg>
